<?xml version="1.0" encoding="UTF-8"?>
<svg xmlns="http://www.w3.org/2000/svg" viewBox="0 0 311.31 113.59">
  <defs>
    <style>
      .cls-1 {
        fill: #2d2e83;
      }

      .cls-1, .cls-2, .cls-3, .cls-4, .cls-5, .cls-6, .cls-7, .cls-8 {
        stroke-width: 0px;
      }

      .cls-2 {
        fill: #9cc09e;
      }

      .cls-9 {
        font-size: 93.82px;
      }

      .cls-9, .cls-10, .cls-11 {
        font-family: BellMT, 'Bell MT';
      }

      .cls-9, .cls-10, .cls-11, .cls-8 {
        fill: #1d1d1b;
      }

      .cls-3 {
        fill: none;
      }

      .cls-4 {
        fill: #009fe3;
      }

      .cls-5 {
        fill: #79b69d;
      }

      .cls-6 {
        fill: #f39200;
      }

      .cls-10 {
        font-size: 27.3px;
      }

      .cls-11 {
        font-size: 25.97px;
      }

      .cls-7 {
        fill: #00a19a;
      }
    </style>
  </defs>
  <g id="Capa_1" data-name="Capa 1">
    <text class="cls-9" transform="translate(142.7 86.68) scale(1.14 1)"><tspan x="0" y="0">A</tspan></text>
    <text class="cls-11" transform="translate(200.92 56.2) scale(1.14 1)"><tspan x="0" y="0">sociación</tspan></text>
    <text class="cls-10" transform="translate(215.96 87.22) scale(.96 1)"><tspan x="0" y="0">rco Iris</tspan></text>
    <path class="cls-8" d="M33.27,60.89c.16.69.02,1.53-.31,2.37-.33.85-.84,1.61-1.25,2.32-.48.89-1.23,1.59-2,2.09-.77.5-1.56.83-2.28,1.08-.07-.21-.07-.58-.23-.64-.58-.16-.71-.6-.85-1.03-.07-.22.33-.11.15-.29.33-.11.82-.42.42-.51-.18-.17-.53.19-.74-.1-.21-.29-.11-.68-.32-.97-.1.03-.3.1-.4.13-.17-.19-.1-.68-.2-.65-.36-.13-.72.1-1.13.21-.06-.22-.22-.41-.05-.58,1.73-.56,3.26-1.38,3.75-2.11.24-.37.33-.58.41-1.13.08-.53.08-1.31.08-2.23.07-.43.56-.16.92.13-.12-.09.22-.12.09-.22.34-.03.93.13,1.07.55l-.03-.32c.1-.12.34-.03.57-.05,0,.11.02.22.13.21.11,0,.34-.03.45-.04,0-.11-.03-.33-.04-.44,0,.11.02.22.13.21.11,0,.34-.03.45-.04.13.22-.07.58.06.8l.34-.02c.1-.25-.04-.59-.06-.82.12.1.24.1.46.08.14.34-.17.72.18,1.08v-.37c.57.22.13.89.22,1.3Z"/>
    <path class="cls-1" d="M37.05,4.11c5.42,2.31,11,6.86,16.33,9.45,6.46,3.04,12.87,7.29,18.68,11.34-.26.37-1.13.59-.78,1.12,1.54,1.91,1.02,2.65.5,3.39-.26.37-1.44-1.01-1.22-.3-1.44-1.01-3.98-2.48-2.79-1.11.22.7,2.4,1.67,2.49,2.56.09.89-1.26.78-1.17,1.67.48.34,1.43,1.01,1.9,1.34.21.71-1.26.78-.79,1.11,1.16,1.37,3.17,2.54,5.06,3.9-.27.37-.06,1.07-1.14.58C57.45,27.61,39.41,17.22,22.07,6.78c-1.91-1.33.04-1.28,1.9-1.02-.62-.08-.28-.68-.9-.77.33-.59,1.9-1.02,4.04-.07l-1.52-.86c-.4-.48.33-.59.56-.99.51.29,1.02.57,1.13.37.11-.2.33-.59.45-.79-.51-.29-1.53-.86-2.04-1.14.51.29,1.02.57,1.13.37.11-.2.33-.59.45-.79,1.14.37,2.44,1.64,3.57,2.03l.34-.59c-.91-.78-2.55-1.46-3.58-2.03.62.09.74-.11.96-.5,1.65.67,2.85,2.13,4.71,2.42l-1.53-.88c1.59-.41,3.68,1.86,5.32,2.56Z"/>
    <path class="cls-6" d="M29.82,12.21c5.37,2.28,10.89,6.79,16.17,9.34,6.4,2.99,12.75,7.19,18.51,11.21-.26.37-1.13.6-.78,1.12,1.53,1.89,1,2.63.48,3.38-.26.37-1.43-.99-1.21-.29-1.42-1-3.94-2.45-2.77-1.09.22.7,2.38,1.65,2.46,2.54.08.89-1.25.79-1.17,1.67.47.33,1.41,1,1.89,1.33.21.7-1.26.78-.79,1.11,1.15,1.36,3.14,2.52,5.01,3.86-.27.37-.07,1.07-1.13.59C49.97,35.56,32.1,25.29,14.94,14.95c-1.89-1.32.05-1.27,1.89-1.02-.61-.08-.28-.68-.89-.76.33-.59,1.89-1.03,4.01-.09l-1.51-.85c-.39-.48.33-.59.56-.99.51.28,1.01.56,1.12.37.11-.2.33-.59.45-.79-.51-.28-1.52-.85-2.02-1.13.51.28,1.01.57,1.12.37.11-.2.33-.59.45-.79,1.13.37,2.41,1.63,3.54,2l.34-.59c-.9-.77-2.52-1.44-3.54-2.01.62.09.73-.11.95-.51,1.63.66,2.81,2.12,4.67,2.4l-1.52-.87c1.58-.41,3.65,1.84,5.27,2.53Z"/>
    <path class="cls-4" d="M25.61,23.04c4.55,1.74,9.08,5.6,13.56,7.58,5.42,2.31,10.74,5.77,15.56,9.06-.26.37-1.04.66-.77,1.13,1.22,1.66.7,2.4.18,3.15-.26.37-1.19-.82-1.05-.17-1.19-.82-3.31-1.98-2.37-.79.14.64,1.99,1.36,2,2.19.01.83-1.17.85-1.16,1.68.39.27,1.18.82,1.57,1.09.13.65-1.17.85-.78,1.12.92,1.18,2.6,2.1,4.15,3.2-.26.37-.14,1.01-1.05.65-13.81-9.28-28.76-17.52-42.99-26.06-1.55-1.11.12-1.23,1.71-1.14-.53-.03-.2-.63-.73-.66.33-.6,1.71-1.14,3.5-.41l-1.26-.69c-.31-.43.33-.6.55-.99.42.23.84.46.95.26.11-.2.33-.6.44-.79-.42-.23-1.27-.69-1.69-.93.42.23.84.46.95.26.11-.2.33-.6.44-.8.96.26,2,1.37,2.95,1.64l.33-.59c-.73-.67-2.11-1.18-2.96-1.64.53.03.64-.16.86-.56,1.38.5,2.32,1.81,3.92,1.93l-1.27-.71c1.4-.52,3.07,1.47,4.44,2Z"/>
    <path class="cls-7" d="M18.9,31.28c4.2,1.66,8.28,5.4,12.39,7.31,5,2.22,9.83,5.57,14.19,8.77-.27.37-1.03.65-.8,1.1,1.05,1.61.51,2.34-.03,3.07-.27.37-1.08-.79-.99-.16-1.08-.79-3.01-1.91-2.2-.76.09.63,1.79,1.31,1.75,2.12-.05.81-1.16.84-1.21,1.65.35.26,1.06.79,1.42,1.05.08.63-1.17.83-.81,1.09.79,1.15,2.32,2.03,3.72,3.09-.27.36-.2.99-1.04.64-12.46-8.96-26.05-16.87-38.98-25.04-1.4-1.07.18-1.2,1.66-1.14-.49-.02-.15-.61-.65-.63.34-.59,1.67-1.14,3.31-.45l-1.15-.66c-.27-.42.34-.59.57-.98.38.22.77.44.88.25.11-.2.34-.59.46-.79-.39-.22-1.16-.67-1.54-.89.39.22.77.44.88.25.11-.2.34-.59.45-.79.89.25,1.81,1.32,2.7,1.57l.35-.59c-.66-.65-1.93-1.13-2.7-1.58.5.03.62-.17.84-.56,1.28.48,2.09,1.75,3.6,1.84l-1.16-.68c1.35-.53,2.82,1.41,4.09,1.91Z"/>
    <path class="cls-5" d="M11.95,51.85c3.66,1.36,7.07,4.7,10.65,6.28,4.36,1.83,8.49,4.74,12.22,7.51-.27.36-.99.68-.81,1.09.83,1.47.28,2.19-.26,2.92-.27.36-.92-.69-.89-.09-.92-.69-2.59-1.63-1.94-.59.04.59,1.53,1.14,1.43,1.91-.1.77-1.12.86-1.22,1.64.3.23.9.68,1.21.91.02.59-1.12.86-.82,1.09.63,1.04,1.95,1.77,3.14,2.69-.28.36-.26.95-.99.67-10.62-7.7-22.25-14.41-33.21-21.5-1.18-.94.24-1.17,1.56-1.2-.44,0-.1-.58-.54-.57.34-.59,1.56-1.2,2.98-.63l-.98-.57c-.21-.39.34-.59.57-.98.33.19.66.38.77.18.11-.2.34-.59.46-.78-.33-.19-.99-.57-1.32-.76.33.19.66.38.77.19.11-.2.34-.59.46-.79.78.18,1.54,1.17,2.31,1.36l.35-.59c-.55-.59-1.65-.98-2.32-1.36.45,0,.56-.2.79-.59,1.11.39,1.76,1.56,3.1,1.57l-.99-.59c1.25-.59,2.43,1.19,3.54,1.6Z"/>
    <path class="cls-2" d="M15.36,41.87c3.46,1.26,6.63,4.47,10.01,5.94,4.12,1.7,8,4.46,11.5,7.09-.27.36-.97.69-.82,1.09.75,1.42.2,2.14-.35,2.86-.27.36-.86-.65-.85-.07-.86-.65-2.44-1.54-1.84-.53.02.58,1.43,1.08,1.31,1.83-.13.76-1.11.87-1.23,1.63.28.22.85.65,1.13.86,0,.58-1.11.87-.83,1.08.57,1,1.82,1.69,2.93,2.56-.28.36-.29.93-.98.68-9.95-7.27-20.87-13.58-31.11-20.33-1.1-.9.26-1.16,1.52-1.21-.42.02-.07-.57-.49-.55.34-.59,1.53-1.21,2.87-.68l-.92-.54c-.19-.38.35-.59.58-.98.31.18.62.36.73.17.12-.19.35-.59.46-.78-.31-.18-.93-.54-1.24-.73.31.18.62.36.73.17.12-.2.35-.59.46-.78.74.17,1.43,1.12,2.17,1.29l.35-.58c-.5-.56-1.55-.93-2.17-1.29.43-.01.54-.21.77-.6,1.05.36,1.63,1.5,2.92,1.48l-.93-.56c1.21-.6,2.29,1.12,3.33,1.5Z"/>
    <path class="cls-6" d="M202.46,62.97h103.83c1.39,0,2.83.11,4.21,0,.06,0,.13,0,.19,0,.8,0,.81-1.25,0-1.25h-103.83c-1.39,0-2.83-.11-4.21,0-.06,0-.13,0-.19,0-.8,0-.81,1.25,0,1.25h0Z"/>
    <path class="cls-6" d="M144.74,63.15h9.36c.8,0,.81-1.25,0-1.25h-9.36c-.8,0-.81,1.25,0,1.25h0Z"/>
  </g>
  <g id="Capa_2" data-name="Capa 2">
    <path class="cls-3" d="M122.75,105.07l-3.84-42.72-40.8-30.48-1.78,1.38c1.48.2,2.64,1.06,3.39,2.2.26.21.52.44.74.7,3.46.93,5.3,6.57,1.41,9.4-.66.48-1.32.96-1.98,1.44-.04.03-.08.05-.12.07-.19.14-.37.28-.56.42.29,1.38-.1,2.87-1.55,4.12-2.81,2.42-5.69,4.58-8.86,6.33-.66.61-1.41.97-2.19,1.11-.81.38-1.64.74-2.5,1.05-1.19.44-2.29.33-3.23-.11-1.65,2.05-3.64,3.94-4.82,5.3-1.39,1.59-3.08,1.89-4.58,1.42-.39.76-.72,1.53-.98,2.32-1.98,6.11-11.63,3.48-9.64-2.66.44-1.35.99-2.63,1.63-3.86.1-1.76,1-3.46,2.69-4.23.65-.86,1.33-1.68,2.05-2.48l-10.64,8.24v34.08h18.96l-.24-12.48,17.04-12,19.44,12.96v16.56l30.96,1.92Z"/>
    <path class="cls-8" d="M98.26,32.14c2.15,1.68,4.07,3.87,6.14,5.9,2.07,2.02,4.3,3.9,6.72,4.89,2.91,1.1,5.79,2.22,8.68,3.14,1.44.48,2.89.85,4.32,1.22,1.43.3,2.85.61,4.23.75-.07.68-.69,1.63-.24,2.03,1.85,1.22,1.83,2.55,1.74,3.92-.04.68-1.65-.13-1.15.59-.83-.06-1.95-.14-2.67-.07-.72.05-1.05.25-.26.73.47.79,2.84.38,3.34,1.42.53,1.07-.76,1.99-.23,3.06.63.07,1.9.1,2.54.11.64.7-.68,2.03-.03,2.04,2,.71,4.74.24,7.4-.2.06.34.26.65.31.94.06.29-.03.57-.73.84-6.11,1.09-12.4.84-18.36-.46-5.98-1.3-11.66-3.64-16.84-6.8-5.14-3.14-9.7-7.02-13.63-11.27-3.93-4.26-7.25-8.88-10.03-13.65-1.08-2.31,1.1-1.42,2.96-.44-.63-.33.23-.89-.39-1.22.86-.55,2.93-.45,4.57,1.32-.35-.49-.68-.99-1.01-1.48-.05-.69.85-.57,1.41-.95.33.49.66.98.94.78.28-.19.84-.58,1.12-.77-.32-.48-.97-1.45-1.29-1.93.31.49.64.96.92.78.28-.19.85-.57,1.13-.76.91.76,1.33,2.55,2.28,3.26l.82-.6c-.39-1.1-1.63-2.29-2.26-3.23.6.28.88.09,1.44-.3,1.21,1.18,1.35,3.14,3.18,3.84-.34-.43-.66-.88-.99-1.32,2-.11,2.57,2.84,3.9,3.88Z"/>
    <path class="cls-8" d="M125.43,68.04c1.3,4.94.05,11.08,1.25,16.07,1.57,5.99,1.8,12.53,2.02,18.56-.68.02-1.72-.44-2.04.07-.95,2.05-2.31,2.1-3.67,2.14-.68.02-.05-1.51-.72-.98-.05-1.51-.48-4.01-1.11-2.48-.66.53.09,2.51-.91,3.05-1,.54-2.06-.43-3.06.11.02.5.05,1.51.07,2.01-.66.53-2.06-.43-2.04.07-.63,1.53-.22,3.53-.14,5.54-.68.02-1.34.55-1.72-.44-1.3-17.58-3.3-35.64-2.9-53.28.27-2.02,1.68-.56,2.76.91-.36-.49.66-.53.3-1.02,1.02-.04,2.76.91,3.17,2.91-.02-.5-.04-1.01-.05-1.51.32-.52,1.02-.04,1.7-.06.02.5.04,1.01.38.99.34-.01,1.02-.04,1.36-.05-.02-.5-.05-1.51-.07-2.01.02.5.04,1.01.38.99.34-.01,1.02-.04,1.36-.05.38.99-.25,2.53.12,3.52l1.02-.04c.31-1.02-.09-2.52-.12-3.52.36.49.7.48,1.38.46.39,1.5-.57,3.04.5,4.51-.02-.5-.04-1.01-.05-1.51,1.74.95.46,3.51.86,5Z"/>
    <path class="cls-8" d="M94.53,96.49c3.73-1.07,8.25.46,12.01-.51,4.52-1.3,9.4-1.23,13.9-1.16,0,.68-.4,1.7-.03,2.04,1.49,1.04,1.47,2.41,1.45,3.77,0,.68-1.12-.02-.76.67-1.12-.02-3.01.3-1.89.99.37.69,1.88.03,2.23,1.05.36,1.03-.4,2.04-.04,3.06.38,0,1.13.02,1.5.02.36.69-.4,2.04-.03,2.04,1.12.7,2.62.38,4.12.4,0,.68.36,1.37-.4,1.7-13.14.49-26.66,1.66-39.77.44-1.5-.36-.35-1.71.79-2.71-.38.34-.36-.69-.75-.35.01-1.02.79-2.71,2.3-3.03-.38,0-.75-.01-1.13-.02-.37-.35.01-1.02.02-1.7.38,0,.75.01.76-.33,0-.34.01-1.02.02-1.36-.37,0-1.13-.02-1.5-.02.37,0,.75.01.75-.33,0-.34.01-1.02.02-1.36.76-.33,1.87.37,2.63.04v-1.02c-.73-.35-1.86-.03-2.61-.04.38-.34.39-.68.4-1.36,1.13-.32,2.24.71,3.38-.29-.37,0-.75-.01-1.12-.02.77-1.69,2.63-.3,3.76-.63Z"/>
    <path class="cls-8" d="M85.81,88.37c-.42-1.57-.93-3.05-1.57-4.33-.65-1.28-1.43-2.32-2.48-3.16-1.2-.88-2.5-1.5-3.86-1.8-1.38-.22-2.8-.11-4.1.29-3.08,1.14-6.08,3.39-8.01,6.25-.45.72-.91,1.44-1.21,2.19-.08.19-.19.37-.26.55l-.18.57c-.12.37-.27.73-.37,1.22-.45,1.81-.66,3.73-.53,4.97-.45.07-1.18-.37-1.36.14-.07.29-.13.52-.2.72-.1.06-.18.2-.26.31-.39.61-.84,1.04-1.43,1.37-.22.14-.45-.29-.55-.64-.1-.3-.15-.52-.3-.2-.55-1.76-.28-5.58-.93-3.38-.21.31-.27,1.07-.23,1.87.03.81.17,1.63.16,2.2-.01.17-.02.31-.06.43-.15.5-.53.49-.93.42-.4-.06-.82-.19-.93.42.19.48.56,1.19,1.09,1.76.5.59,1.13,1.1,1.55,1.39.26.46-.11.62-.49.7-.37.08-.77.07-.29.42,1.21,1.15,2.77,1.87,4.41,2.4,1.65.51,3.37.8,5.2.96-.02.23.15.47.14.67,0,.1-.06.19-.21.26-.18.06-.49.11-.97.11-2.25-.26-4.39-.73-6.71-1.69-.57-.24-1.17-.53-1.77-.87-.31-.19-.6-.35-.91-.57-.27-.2-.74-.52-1.03-.79-1.33-1.11-2.35-2.57-2.95-4.2-.1-.33-.2-.64-.3-.99l-.12-.53c-.03-.14-.06-.28-.08-.41-.1-.54-.17-1.05-.22-1.56-.09-1.01-.1-1.96-.06-2.88.08-1.84.35-3.55.73-5.23.1-.43.18-.82.33-1.28l.44-1.36c.27-.92.7-1.76,1.1-2.61.82-1.69,1.86-3.24,3.03-4.68,2.35-2.85,5.27-5.21,8.71-6.82,3.41-1.6,7.4-2.46,11.48-2.01l1.52.2c.5.1,1,.25,1.49.38.49.14,1,.27,1.48.43l1.41.61c.46.22.95.4,1.38.66l1.28.8c.42.28.85.53,1.26.85l1.22,1.05.6.54.53.6,1.04,1.22c.59.85,1.2,1.73,1.66,2.62.44.9.9,1.81,1.19,2.71.16.45.33.91.46,1.36l.35,1.33c.86,3.56.98,6.88.93,10.01-.05,3.12-.31,6.11-.5,8.84-.32,2.82-1.18.74-1.75-1.56.19.75-.49.73-.29,1.48-.69-.02-1.74-1.56-1.83-4.64l-.11,2.29c-.27.75-.68-.03-1.13-.06.04-.76.08-1.52-.15-1.53-.23-.01-.68-.03-.91-.04-.04.76-.11,2.29-.15,3.05.04-.76.07-1.53-.15-1.54-.23-.01-.68-.03-.91-.05-.14-1.54.41-3.77.21-5.26h-.68c-.25,1.46-.13,3.7-.21,5.23-.19-.77-.42-.78-.87-.81-.11-2.27.66-4.47-.06-6.61.03.7,0,1.43,0,2.15-.55-.74-.61-1.97-.59-3.28,0-1.29.04-2.65-.23-3.59Z"/>
    <path class="cls-8" d="M58.48,105.5c-3.08.8-6.86-.16-9.98.5-3.75.88-7.83.81-11.58.69.01-.45.35-1.12.04-1.36-1.23-.72-1.19-1.63-1.16-2.54.02-.45.93.03.64-.43.93.03,2.48-.15,1.57-.63-.3-.46-1.55-.05-1.83-.74-.29-.69.35-1.35.07-2.04-.31-.01-.92-.03-1.23-.04-.29-.47.36-1.35.05-1.36-.9-.49-2.14-.31-3.36-.36.02-.45-.27-.92.35-1.12,10.72.01,21.69-.82,32.38-.46,1.23.19.34,1.13-.56,1.83.3-.24.32.45.62.21.02.68-.56,1.83-1.79,2.09l.92-.02c.31.22.02.68.03,1.13-.31,0-.62.02-.61.25,0,.23.02.68.02.91.31,0,.93-.03,1.24-.04-.31,0-.62.02-.61.24,0,.23.02.68.02.91-.61.25-1.56-.19-2.17.05l.02.68c.63.21,1.55-.04,2.18-.05-.3.24-.3.46-.29.92-.93.25-1.88-.41-2.8.29l.93-.02c-.6,1.15-2.18.27-3.11.51Z"/>
    <path class="cls-8" d="M27.77,98.18c-.75-3.74.32-8.28-.2-12.07-.71-4.56-.4-9.49.01-14.01.45.04,1.1.48,1.36.12.81-1.44,1.72-1.35,2.62-1.26.45.04-.1,1.11.38.79-.11,1.11-.03,2.99.51,1.91.48-.33.17-1.85.88-2.16.71-.31,1.32.49,2.03.19.04-.37.11-1.1.14-1.47.49-.32,1.32.5,1.36.13.56-1.05.49-2.53.65-3.98.45.05.94-.26,1.09.49-.98,12.76-.63,25.86-.99,38.6-.19,1.46-1.13.4-1.83-.69.24.36-.45.38-.21.74-.68.02-1.84-.69-2.09-2.16l.02,1.11c-.22.37-.68.01-1.13.02,0-.37-.02-.74-.24-.74-.23,0-.68.01-.91.02,0,.37.03,1.12.03,1.49,0-.37-.02-.74-.24-.74-.23,0-.68.01-.91.02-.25-.74.2-1.87-.04-2.62h-.68c-.22.76.02,1.88.04,2.63-.24-.37-.46-.37-.92-.36-.25-1.12.42-2.26-.27-3.38v1.13c-1.14-.74-.24-2.63-.46-3.76Z"/>
    <path class="cls-8" d="M42.55,53.18c4.14-4.56,10.11-9.13,14.85-13.12,5.63-4.89,12.42-9.35,18.92-13,.11.2-.26.79.33.59,2.34-.9,2.55-.5,2.76-.1.11.2-1.61.89-.97.79-1.63.86-4.2,2.54-2.5,1.8.63-.13,2.66-1.51,3.37-1.5.7,0-.21.89.49.9.53-.3,1.6-.88,2.14-1.15.64-.08-.22.88.32.6.86-.32,1.81-.78,2.82-1.3,1.01-.51,2.09-1.05,3.17-1.59.1.21.74.14-.3.78-9.45,4.66-18.52,10.39-26.95,16.9-4.22,3.26-8.28,6.71-12.18,10.32l-2.89,2.74-2.82,2.79-2.75,2.85c-.92.96-1.93,2.06-3.25,3.07-.62.44-1.04.63-1.22.68-.15.01-.17-.06,0-.26.33-.4,1.11-1.21,1.73-2.03-.43.54-.65.29-1.13.81-.2-.28.56-1.54,2.1-3.43-.42.45-.84.9-1.29,1.35-.53.36-.24-.24-.4-.4.44-.43.85-.88.77-.96-.08-.08-.25-.23-.33-.31-.41.45-1.26,1.3-1.71,1.68.45-.38.87-.81.8-.89-.08-.08-.24-.24-.32-.32.73-.9,2.15-2.12,2.92-3.08l-.25-.23c-.94.81-2.12,2.27-2.92,3.07.33-.49.24-.57.08-.73,1.11-1.35,2.68-2.51,3.7-4.08l-1.28,1.34c.43-1.3,2.94-3.19,4.18-4.57Z"/>
    <path class="cls-8" d="M82.85,26.35c.74.44.97,1.5,1.8,1.84,1,.34,1.75.95,2.55,1.42-.12.19-.36.44-.35.58.1.46-.12.86-.34,1.25-.11.2-.23-.14-.27.1-.23-.13-.68-.29-.57.05-.04.24.4.24.3.58-.09.34-.43.54-.51.88.09.05.27.15.35.2-.02.25-.42.55-.33.6.17.36.61.45.99.63-.1.2-.09.46-.34.47-1.8-.71-3.55-1.71-5.04-3.04-1.49-1.32-2.72-2.98-3.43-4.84-.1-.45.47-.34.91-.2-.15-.05.16-.2,0-.24.31-.15.91-.21,1.19.09l-.14-.26c.06-.14.3-.15.51-.26.04.09.09.17.19.12.1-.05.3-.16.4-.21-.04-.08-.12-.25-.16-.33.04.08.08.16.18.11.1-.05.3-.15.4-.21.17.11.11.44.29.54l.3-.17c.02-.21-.21-.37-.28-.53.14.03.24-.03.44-.13.21.16.04.55.46.59l-.12-.21c.57-.14.39.43.62.58Z"/>
    <path class="cls-8" d="M86.71,24.08c.54,0,.59.68,1.12.67.66-.06,1.05.23,1.45.49-.12.19-.35.45-.37.57-.05.37-.29.76-.54,1.14-.12.19-.11-.07-.2.14-.11-.07-.36-.1-.37.16-.09.21.19.12.04.43-.15.31-.41.55-.56.86.04.03.12.08.16.1-.08.22-.41.55-.37.58,0,.27.24.28.41.39-.12.19-.19.42-.34.46-1.65-.72-3.47-1.58-4.51-3.14-.07-.23.37-.43.72-.56-.12.04.13-.19.01-.15.24-.24.72-.56.93-.51l-.1-.1c.05-.11.24-.24.4-.4.03.03.06.07.15-.01.08-.08.24-.24.32-.32-.03-.03-.09-.1-.13-.13.03.03.06.06.14-.02.08-.08.24-.24.32-.32.14-.02.07.23.21.21l.24-.24c.02-.14-.15-.15-.21-.21.11-.05.19-.13.35-.29.17,0,.02.34.34.18l-.09-.09c.45-.35.28.12.45.12Z"/>
    <path class="cls-8" d="M89.92,24.9c.61.21.68,1.03,1.32,1.18.78.13,1.29.54,1.81.89-.13.19-.36.44-.38.57,0,.41-.24.79-.49,1.18-.12.19-.16-.1-.23.12-.16-.1-.48-.19-.46.11-.07.23.27.18.14.5-.13.32-.43.53-.55.86.06.04.18.11.24.15-.06.23-.42.54-.36.58.07.32.4.37.67.52-.11.2-.15.44-.34.46-2.52-1.09-5.07-2.93-6.21-5.59-.07-.34.46-.34.86-.32-.14,0,.16-.18.02-.19.3-.17.86-.33,1.1-.15l-.11-.18c.06-.12.29-.17.49-.29.03.06.07.12.17.06.1-.06.29-.18.39-.24-.03-.06-.1-.17-.13-.22.03.06.07.11.16.05.1-.06.29-.18.39-.23.16.05.07.32.23.36l.29-.19c.03-.16-.16-.25-.22-.35.13,0,.22-.07.42-.18.18.08,0,.42.37.37l-.09-.14c.53-.22.31.26.5.33Z"/>
    <path class="cls-8" d="M92.98,24.58c.6.26.53,1.08,1.11,1.36.73.32,1.1.92,1.45,1.48-.19.12-.51.25-.58.36-.17.36-.56.6-.95.84-.19.12-.09-.14-.25.03-.09-.14-.33-.31-.43-.05-.16.17.14.23-.12.46-.26.23-.61.31-.87.54.03.05.09.14.11.19-.16.17-.61.31-.58.36-.11.26.1.38.22.57-.19.12-.36.29-.51.25-1.2-1.5-2.61-2.93-3.33-4.73-.02-.24.45-.34.83-.38-.13.01.16-.17.04-.15.29-.18.83-.38,1.04-.26-.03-.05-.06-.09-.09-.14.07-.11.29-.18.48-.3.03.05.06.09.15.03.1-.06.29-.18.39-.24-.03-.05-.09-.14-.11-.19.03.05.06.09.15.03.1-.06.29-.18.39-.24.15.03.05.29.2.32l.29-.18c.04-.15-.14-.23-.2-.32.13-.01.22-.07.42-.19.18.08-.02.4.35.36-.03-.05-.06-.09-.09-.14.54-.21.3.26.48.34Z"/>
    <path class="cls-8" d="M79.57,29.05c.05.46-.51.3-.48.73.06.55-.2.78-.43.99-.15-.17-.36-.44-.45-.51-.31-.18-.61-.52-.91-.86-.15-.17.06-.05-.11-.21.06-.05.08-.23-.13-.34-.17-.15-.1.09-.35-.15-.25-.24-.43-.53-.68-.76-.02.02-.06.05-.08.07-.17-.15-.43-.53-.45-.51-.21-.12-.21.04-.29.11-.15-.17-.32-.32-.36-.44.54-.79.96-1.76,1.88-2.12.15.01.4.41.56.71-.06-.1.17.15.12.05.23.25.56.71.56.87.02-.02.04-.04.06-.05.1.07.23.25.38.42-.02.02-.04.04.04.12.08.08.23.25.3.34.02-.02.06-.05.08-.07-.02.02-.04.04.04.12.08.08.23.25.3.34.04.12-.17,0-.14.12l.23.25c.12.05.1-.09.14-.12.06.1.13.19.28.36.02.14-.27-.06-.1.24.02-.02.04-.04.06-.05.34.46-.06.21-.05.35Z"/>
    <path class="cls-8" d="M36.71,67.27c-.87,1.89-2.92,3.3-4.19,4.8-1.51,1.88-3.63,3.3-5.54,4.48-.12-.19-.14-.58-.36-.58-.81.1-1.05-.29-1.28-.68-.12-.19.47-.29.19-.39.47-.29,1.19-.87.6-.77-.27-.09-.78.48-1.11.29-.33-.2-.2-.68-.53-.87-.15.09-.46.28-.62.38-.27-.1-.2-.68-.35-.58-.58.08-1.14.55-1.77.92-.12-.2-.39-.3-.13-.58,2.68-1.72,5.26-3.48,7.45-5.44,2.19-1.96,3.99-4.13,5.18-6.46.34-.51.59.07.7.65-.04-.19.27-.05.23-.25.31.13.71.67.49,1.35.08-.15.16-.31.23-.47.18-.11.31.14.51.24-.08.16-.16.33-.05.38.1.05.3.15.41.2.08-.17.24-.51.32-.68-.07.17-.16.34-.05.39.1.05.31.15.41.19-.06.4-.53.81-.63,1.2l.3.17c.3-.28.47-.87.64-1.22.02.23.12.28.32.38-.17.6-.75.96-.78,1.65.11-.17.21-.35.31-.52.3.65-.64,1.28-.9,1.82Z"/>
    <path class="cls-8" d="M38.41,63.77c-.22,1.29-1.47,2.27-2.03,3.41-.66,1.43-1.97,2.56-3.3,3.34-.12-.19-.19-.55-.35-.58-.6-.04-.81-.44-1.04-.84-.11-.2.29-.17.08-.31.29-.16.69-.57.29-.57-.21-.13-.47.28-.73.04-.26-.24-.25-.64-.51-.89-.08.05-.25.14-.34.19-.19-.16-.24-.65-.32-.6-.34-.07-.61.18-.94.32-.1-.21-.25-.38-.14-.56,1.32-.68,2.47-1.72,3.38-2.89.92-1.17,1.61-2.45,2.19-3.77.21-.28.57.07.81.43-.08-.12.24-.02.16-.14.32.09.82.44.79.86.04-.09.07-.19.1-.28.14-.06.32.11.54.18-.03.1-.06.2.04.24.11.04.32.11.43.15.03-.1.1-.31.13-.42-.03.1-.07.21.04.24.11.04.32.11.43.14.04.26-.3.5-.27.75l.32.13c.19-.18.22-.55.28-.77.07.15.18.19.39.26-.01.39-.46.6-.29,1.06.05-.11.1-.22.14-.34.44.45-.24.84-.3,1.21Z"/>
    <path class="cls-8" d="M36.56,63.76c-.7,1.04-1.71,1.99-2.78,2.84-1.08.84-2.19,1.6-3.12,2.41-2.22,1.98-5.05,3.4-7.61,4.55-.09-.21-.02-.61-.28-.62-.99.07-1.17-.35-1.36-.76-.09-.21.63-.28.33-.39.63-.28,1.63-.87.91-.79-.3-.11-1.05.48-1.39.26-.35-.22-.07-.71-.41-.93-.21.09-.62.28-.83.37-.3-.12-.07-.72-.27-.62-.72.06-1.51.53-2.35.89-.09-.21-.39-.33-.01-.61,3.63-1.67,7.19-3.42,10.31-5.53,1.56-1.05,2.99-2.21,4.27-3.46.32-.31.62-.64.93-.96.33-.36.7-.77,1.14-1.2.44-.43.97-.89,1.65-1.32.67-.42,1.57-.81,2.59-.91.46-.03.71.04.81.1.04.07.06.14-.08.23-.26.17-.88.39-1.37.73.34-.2.41.12.76-.04.03.35-.62.93-1.44,1.58.23-.14.47-.26.74-.36.3.01.11.32.2.53-.23.08-.44.2-.38.3.05.1.16.3.21.4.18-.1.55-.25.74-.28-.19.04-.38.11-.34.22.04.11.12.32.16.43-.24.19-.82.31-1.06.67l.22.26c.36-.16.7-.53.95-.61-.08.15-.03.26.06.47-.23.22-.86.29-1.04.94.14-.13.27-.26.4-.37.06.33-.14.54-.42.8-.28.25-.63.53-.83.83Z"/>
    <path class="cls-8" d="M41.2,60.09c.19.37-.34.27-.17.63.24.45.09.65-.04.84-.18-.13-.45-.35-.55-.4-.32-.14-.69-.4-1.06-.67-.18-.13.03-.05-.16-.16.03-.05,0-.19-.22-.28-.2-.12-.06.08-.34-.11-.29-.18-.54-.41-.83-.6-.01.02-.03.05-.04.06-.2-.12-.54-.41-.55-.4-.22-.09-.17.04-.21.1-.18-.13-.38-.25-.45-.35.2-.67.23-1.49.9-1.83.14,0,.47.32.72.56-.08-.08.2.12.11.04.28.2.72.56.76.69.01-.02.02-.03.03-.05.1.05.28.2.46.33-.01.02-.02.03.07.1.09.07.28.2.37.26.01-.02.03-.05.04-.06-.01.02-.02.03.07.1.09.07.28.2.37.27.07.1-.15.01-.08.11l.28.2c.11.04.06-.08.08-.11.08.08.17.15.36.28.06.11-.25-.04,0,.21.01-.02.02-.03.03-.05.44.36.01.17.07.29Z"/>
    <path class="cls-8" d="M38.08,68.65c.4,1-.12,2.22.13,3.25.34,1.26.15,2.61-.12,3.82-.22-.05-.53-.22-.67-.15-.42.32-.86.21-1.3.11-.22-.05.06-.28-.18-.24.07-.28.05-.77-.23-.54-.24.05-.1.46-.45.48-.35.01-.64-.24-1-.23-.02.09-.06.26-.08.35-.24.03-.64-.25-.66-.16-.28.2-.26.56-.35.9-.22-.06-.46-.04-.52-.24.6-2.95.41-5.98.47-8.91.08-.35.56-.14.92.09-.12-.08.22-.11.1-.18.34-.03.92.09,1.06.45l-.02-.27c.1-.1.34-.03.57-.05,0,.09.02.19.13.18.11,0,.34-.03.45-.04,0-.09-.03-.28-.03-.38,0,.09.02.19.13.18.11,0,.34-.03.45-.04.13.18-.08.49.05.68l.34-.02c.1-.2-.03-.49-.05-.69.12.09.24.08.46.06.14.29-.18.61.17.89l-.02-.3c.58.17.15.7.27,1Z"/>
    <path class="cls-8" d="M39.02,68.44c.23,1.13-.49,2.35-.42,3.49.13,1.39-.29,2.8-.77,4.04-.21-.08-.49-.3-.64-.24-.47.29-.89.12-1.32-.05-.21-.08.11-.29-.14-.28.11-.29.18-.82-.14-.6-.25.02-.18.48-.54.46-.35-.03-.6-.34-.95-.37-.04.09-.11.27-.15.37-.25,0-.6-.34-.63-.25-.32.18-.36.58-.52.93-.21-.09-.45-.1-.48-.32,1.13-3.12,1.48-6.46,2.02-9.65.14-.36.57-.06.89.25-.11-.1.23-.08.13-.18.34.02.9.25.98.66l.02-.3c.12-.09.34.02.57.04,0,.1-.01.2.1.21.11,0,.34.03.45.04,0-.1.02-.31.03-.41,0,.1-.01.21.1.21.11,0,.34.02.45.03.1.22-.16.52-.06.74l.34.03c.13-.2.05-.53.06-.74.11.11.22.12.45.14.09.33-.28.62.02.98l.03-.32c.55.27.03.77.1,1.11Z"/>
    <path class="cls-8" d="M34.63,70.6c.37.92-.11,2.04.23,2.96.45,1.11.45,2.32.45,3.43-.23,0-.57-.09-.68,0-.34.37-.79.37-1.25.37-.23,0,0-.28-.23-.19,0-.28-.11-.74-.34-.46-.23.09,0,.46-.34.56-.34.09-.68-.09-1.02,0v.37c-.23.09-.68-.09-.68,0-.23.28-.11.65-.11,1.02-.23,0-.45.09-.57-.09-.23-3.24-.68-6.58-.34-9.82.11-.37.57-.09.91.19-.11-.09.23-.09.11-.19.34,0,.91.19,1.02.56v-.28c.11-.09.34,0,.57,0,0,.09,0,.19.11.19h.45v-.37c0,.09,0,.19.11.19h.45c.11.19-.11.46,0,.65h.34c.11-.19,0-.46,0-.65.11.09.23.09.45.09.11.28-.23.56.11.83v-.28c.57.19.11.65.23.93Z"/>
    <path class="cls-8" d="M125.39,101.33c.16.69.02,1.53-.31,2.37-.33.85-.84,1.61-1.25,2.32-.48.9-1.23,1.59-2,2.09-.77.5-1.56.83-2.28,1.08-.07-.21-.07-.58-.23-.64-.58-.16-.71-.6-.85-1.03-.07-.22.33-.11.15-.29.33-.11.82-.42.42-.51-.18-.17-.53.19-.74-.1-.21-.29-.11-.68-.32-.97-.1.03-.3.1-.4.13-.17-.19-.1-.68-.2-.65-.36-.13-.72.1-1.13.21-.06-.22-.22-.41-.05-.58,1.73-.56,3.26-1.38,3.75-2.11.24-.37.33-.58.41-1.13.08-.53.08-1.31.08-2.23.07-.43.56-.16.92.13-.12-.09.22-.12.09-.22.34-.03.93.13,1.07.55l-.03-.32c.1-.12.34-.03.57-.05,0,.11.02.22.13.21.11,0,.34-.03.45-.04,0-.11-.03-.33-.04-.44,0,.11.02.22.13.21.11,0,.34-.03.45-.04.13.22-.07.58.06.8l.34-.02c.1-.25-.04-.59-.06-.82.12.1.24.1.46.08.14.34-.17.72.18,1.08v-.37c.57.22.13.89.22,1.3Z"/>
  </g>
</svg>